<?xml version="1.0" encoding="utf-8"?>
<!-- Generator: Adobe Illustrator 25.2.1, SVG Export Plug-In . SVG Version: 6.00 Build 0)  -->
<svg version="1.1" xmlns="http://www.w3.org/2000/svg" xmlns:xlink="http://www.w3.org/1999/xlink" x="0px" y="0px"
	 viewBox="0 0 500 500" style="enable-background:new 0 0 500 500;" xml:space="preserve">
<style type="text/css">
	.st0{fill:#A0DADA;}
	.st1{fill-rule:evenodd;clip-rule:evenodd;fill:#FFFFFF;}
	.st2{fill:none;}
	.st3{fill:#FFFFFF;}
	.st4{fill:#545454;}
	.st5{fill:#922224;}
</style>
<g id="Ebene_1">
	<path class="st0" d="M82.3,425.8h268.9c25.1,0,45.4-20.3,45.4-45.4v-269c0-25.1-20.3-45.4-45.4-45.4H82.3
		c-25.1,0-45.4,20.3-45.4,45.4v268.9C36.9,405.4,57.2,425.8,82.3,425.8z"/>
	<path class="st0" d="M122.3,66H81.6h-0.9c0,0,0,0-0.1,0c-24.3,0.5-43.7,20.3-43.7,44.7v270.4c0,24.4,19.5,44.2,43.8,44.7v0h0.9
		h40.7c0,0,0.1,0,0.1-0.1V66.1C122.4,66.1,122.4,66,122.3,66z"/>
	<path class="st1" d="M441.5,203.9"/>
</g>
<g id="Ebene_3">
	<g>
		<path class="st2" d="M318.8,169.7c0.8,0.7,1.7,1.3,2.7,1.8C320.6,170.9,319.7,170.3,318.8,169.7z"/>
		<path class="st3" d="M314.9,187.5c6.3-2.6,12.6-6.4,16.4-11.5c-3.3-1-6.6-2.6-9.8-4.5c-1-0.5-1.9-1.1-2.7-1.8
			c-12.5-8.6-23.9-21.7-35.3-21.7c-15.1,0-25.2,30.6-54.1,31.9v15.3c7.5,2.6,18.9,3.8,32.7,3.8c-1.3-6.4-2.5-12.8-2.5-20.4
			c5,7.7,12.6,14,18.9,19.1c6.3-1.3,12.6-1.3,17.6-3.8c-5-7.7-7.5-15.3-8.8-24.2C294.8,178.6,304.8,183.7,314.9,187.5z"/>
		<path class="st3" d="M204.2,195.2v-15.3c-28.9-1.3-39-31.9-54.1-31.9s-30.2,23-47.8,28.1c3.8,5.1,10.1,7.7,16.4,11.5
			c10.1-3.8,20.1-8.9,27.7-16.6c-1.3,7.7-3.8,15.3-8.8,23c6.3,1.3,11.3,2.6,17.6,3.8c7.5-5.1,13.8-11.5,18.9-19.1
			c0,7.7,0,14-2.5,20.4C184,199,195.4,197.7,204.2,195.2z"/>
		<path class="st4" d="M348.9,156.9c-22.6-6.4-37.7-35.7-65.4-35.7c-25.2,1.3-34,24.2-49.1,30.6c-1.3,0-3.8,1.3-5,1.3v-8.9
			c7.5-3.8,12.6-12.8,12.6-21.7c0-14-11.3-25.5-25.2-25.5c-13.8,0-25.2,11.5-25.2,25.5c0,8.9,5,17.9,12.6,21.7v8.9c-1.3,0-3.8,0-5,0
			c-15.1-6.4-22.6-29.3-49.1-30.6c-27.7,0-42.8,29.3-65.4,34.4c-6.3,2.6-12.6,2.6-18.9,2.6c7.5,52.3,83,75.2,138.4,61.2V301
			c-13.8-2.6-40.3-8.9-41.5-23c-1.3-6.4,6.3-15.3,16.4-15.3c7.5,0,12.6-6.4,12.6-12.8c0-7.7-5-12.8-12.6-12.8
			c-22.6,0-41.5,17.9-41.5,39.5c-1.3,35.7,41.5,44.6,66.7,51v62.5c0,7.7,5,12.8,12.6,12.8c7.5,0,12.6-5.1,12.6-12.8v-56.1
			c31.5,11.5,28.9,29.3,12.6,37v12.8c28.9-1.3,44-37,18.9-61.2c-7.5-7.7-21.4-11.5-31.5-15.3v-88c55.4,15.3,130.8-7.7,138.4-59.9
			C361.4,158.2,355.1,158.2,348.9,156.9z M155.1,197.7c-6.3-1.3-11.3-2.6-17.6-3.8c5-7.7,7.5-15.3,8.8-23
			c-7.5,7.7-17.6,12.8-27.7,16.6c-6.3-3.8-12.6-6.4-16.4-11.5c17.6-5.1,32.7-28.1,47.8-28.1s25.2,30.6,54.1,31.9v15.3
			c-8.8,2.6-20.1,3.8-32.7,3.8c2.5-6.4,2.5-12.8,2.5-20.4C168.9,186.2,162.6,192.6,155.1,197.7z M296,193.9
			c-5,2.6-11.3,2.6-17.6,3.8c-6.3-5.1-13.8-11.5-18.9-19.1c0,7.7,1.3,14,2.5,20.4c-13.8,0-25.2-1.3-32.7-3.8v-15.3
			c28.9-1.3,39-31.9,54.1-31.9c11.4,0,22.8,13.1,35.3,21.7c0.9,0.6,1.8,1.2,2.7,1.8c3.2,2,6.4,3.6,9.8,4.5
			c-3.8,5.1-10.1,8.9-16.4,11.5c-10.1-3.8-20.1-8.9-27.7-17.9C288.5,178.6,291,186.2,296,193.9z"/>
		<path class="st4" d="M253.2,237.2c-7.5,0-12.6,5.1-12.6,12.8c0,6.4,6.3,12.8,12.6,12.8c11.3,0,17.6,8.9,17.6,15.3
			c-1.3,12.8-17.6,16.6-28.9,20.4c12.6,3.8,22.6,8.9,27.7,15.3c13.8-6.4,25.2-20.4,25.2-37C294.8,255.1,275.9,237.2,253.2,237.2z"/>
		<path class="st4" d="M195.4,339.3c-7.5-1.3-17.6-5.1-28.9-7.7c-16.4,23-1.3,52.3,25.2,53.6v-12.8
			C176.5,364.8,174,350.7,195.4,339.3z"/>
	</g>
	<g>
		<polygon class="st3" points="390.1,300.6 295.5,395.3 295.5,404.9 305.1,404.9 399.7,310.3 		"/>
		<path class="st5" d="M459.6,265.2l-24.4-24.4c-2.1-2.1-4.7-3-7.4-3c-2.7,0-5.3,1-7.3,3l-19.1,19.1l39.2,39.2l19.1-19.1
			C463.7,275.9,463.7,269.3,459.6,265.2z"/>
		<path class="st5" d="M274.6,386.6v39.2h39.2l115.5-115.5l-39.2-39.2L274.6,386.6z M295.5,404.9v-9.6l94.7-94.7l9.6,9.6l-94.7,94.7
			H295.5z"/>
	</g>
</g>
</svg>
